:SAMPLES-PER-SECOND 30
:FRAME-RANGE 1-3549
:FULLY-SPECIFIED
:DEGREES
3217
root  35.0258 15.553 -62.9059 -15.6357 66.7886 0.366455
RightUpLeg  -68.9346 -14.9433 -11.3594
RightLeg  140.07 -5.0838 4.4829
RightFoot  -43.5724 2.71834 10.4279
RightToes  -1.11029e-010 1.2921e-014 -6.02303e-014
Spine  57.4828 2.2254 -0.410034
Spine1  -16.8741 2.65946 -3.82461
HEad  -24.3606 2.28569 -0.115515
LeftShoulder1  1.28289 -4.73239 -8.06357
LeftArm  -43.0842 -58.1383 -11.8809
LeftForeArm  62.5093 -72.5498 -28.6042
LeftHand  0.197835 6.61406 19.6258
RightShoulder  4.80928 29.9679 6.50738
RightArm  -58.8722 28.8305 -5.94925
RightForeArm  52.8998 68.1899 22.4481
RightHand  -1.03559 0.793212 -19.4404
LeftUpLeg  -62.707 23.3702 21.9467
LeftLeg  139.275 22.9745 -17.7187
LeftFoot  -37.1749 -0.4027 -2.73794
LeftToes  -1.9349e-011 -1.19469e-011 -2.02219e-012
3218
root  35.0883 15.6506 -62.8822 -13.0388 66.6772 1.88129
RightUpLeg  -70.0445 -16.5086 -12.3306
RightLeg  139.747 -6.93066 5.96595
RightFoot  -43.2002 2.29984 9.08816
RightToes  -1.11029e-010 1.2921e-014 -6.02303e-014
Spine  56.1409 2.46538 -1.16855
Spine1  -17.6352 2.46262 -3.55038
HEad  -25.0656 2.49279 -0.433961
LeftShoulder1  1.25595 -4.85445 -7.44767
LeftArm  -43.9464 -58.2397 -12.1121
LeftForeArm  62.1007 -72.3483 -28.2262
LeftHand  0.207467 6.68413 19.4557
RightShoulder  4.67446 29.8725 6.10537
RightArm  -59.2036 29.8394 -5.76231
RightForeArm  53.768 68.9709 23.4502
RightHand  -1.02918 0.744029 -19.4722
LeftUpLeg  -63.2117 24.5374 21.4422
LeftLeg  138.51 24.0068 -18.8699
LeftFoot  -36.8762 -0.3284 -2.43501
LeftToes  -1.9349e-011 -1.19469e-011 -2.02219e-012
3219
root  35.1558 15.7358 -62.8649 -10.5448 66.4065 3.49005
RightUpLeg  -70.9474 -17.9764 -13.3268
RightLeg  139.402 -8.79089 7.48465
RightFoot  -42.975 2.01049 8.13322
RightToes  -1.11029e-010 1.2921e-014 -6.02303e-014
Spine  55.1552 2.71791 -1.97493
Spine1  -18.6991 2.25662 -3.14928
HEad  -25.6438 2.74056 -0.701248
LeftShoulder1  1.27189 -4.95439 -7.46019
LeftArm  -43.9213 -57.7515 -12.7162
LeftForeArm  63.9684 -73.007 -29.4034
LeftHand  0.211426 6.72273 19.2662
RightShoulder  4.82261 30.5908 6.2471
RightArm  -58.3218 29.6659 -5.3253
RightForeArm  55.8553 70.7664 26.123
RightHand  -0.975729 0.516652 -19.1679
LeftUpLeg  -63.4552 25.6352 21.0007
LeftLeg  137.779 24.9719 -19.9796
LeftFoot  -36.6468 -0.325585 -2.43886
LeftToes  -1.9349e-011 -1.19469e-011 -2.02219e-012
3220
root  35.2382 15.7813 -62.8439 -8.48547 66.0972 4.96222
RightUpLeg  -71.5839 -19.3204 -14.3707
RightLeg  139.168 -10.5309 8.89524
RightFoot  -42.6622 1.76273 7.32954
RightToes  -1.11029e-010 1.2921e-014 -6.02303e-014
Spine  54.2442 2.95983 -2.68215
Spine1  -19.5673 2.12235 -2.8612
HEad  -26.4096 2.95013 -0.71129
LeftShoulder1  1.29094 -4.9339 -7.75424
LeftArm  -42.7694 -57.5172 -13.6745
LeftForeArm  66.4709 -74.3181 -32.423
LeftHand  0.245258 6.94388 19.0862
RightShoulder  5.14777 30.8338 7.18296
RightArm  -56.9099 29.7201 -4.64008
RightForeArm  59.6064 73.0101 30.2903
RightHand  -0.926458 0.310065 -18.8559
LeftUpLeg  -63.3974 26.4856 21.0251
LeftLeg  137.076 26.1822 -21.2585
LeftFoot  -36.2825 -0.395554 -2.78154
LeftToes  -1.9349e-011 -1.19469e-011 -2.02219e-012
3221
root  35.337 15.8071 -62.8259 -7.38489 65.7903 5.5321
RightUpLeg  -71.9732 -20.5363 -14.9775
RightLeg  138.955 -12.0041 10.0982
RightFoot  -42.3902 1.58953 6.76794
RightToes  -1.11029e-010 1.2921e-014 -6.02303e-014
Spine  53.3761 3.04196 -2.86626
Spine1  -20.2129 2.11665 -2.68653
HEad  -26.887 3.08951 -0.885922
LeftShoulder1  1.31229 -4.99037 -7.92203
LeftArm  -41.2077 -57.3279 -15.2619
LeftForeArm  70.0363 -75.6514 -36.0934
LeftHand  0.250372 7.01367 18.6847
RightShoulder  5.43785 30.3257 8.39318
RightArm  -55.2068 30.7111 -3.9727
RightForeArm  63.2954 74.7622 34.6027
RightHand  -0.882115 0.115441 -18.5829
LeftUpLeg  -63.3598 27.1726 21.1427
LeftLeg  136.798 26.8311 -21.8842
LeftFoot  -36.011 -0.392162 -2.78983
LeftToes  -1.9349e-011 -1.19469e-011 -2.02219e-012
3222
root  35.4382 15.8083 -62.8022 -7.36462 65.6463 5.46783
RightUpLeg  -71.4635 -21.5334 -15.5739
RightLeg  138.791 -13.3993 11.2254
RightFoot  -42.5364 1.3736 5.96657
RightToes  -1.11029e-010 1.2921e-014 -6.02303e-014
Spine  52.6727 3.06255 -2.77844
Spine1  -20.4944 2.17696 -2.38019
HEad  -27.108 3.10884 -1.15335
LeftShoulder1  1.34747 -4.96759 -8.43338
LeftArm  -39.7846 -57.6124 -16.8987
LeftForeArm  72.9223 -76.3811 -38.3291
LeftHand  0.216931 6.87704 17.8848
RightShoulder  5.64928 30.4936 8.98947
RightArm  -53.8914 30.853 -3.80803
RightForeArm  65.6857 75.6289 37.1935
RightHand  -0.848082 0.0103347 -18.214
LeftUpLeg  -62.8699 27.3885 21.6858
LeftLeg  136.737 27.3286 -22.2592
LeftFoot  -35.9551 -0.395609 -2.81056
LeftToes  -1.9349e-011 -1.19469e-011 -2.02219e-012
3223
root  35.5581 15.7631 -62.7561 -7.50049 65.513 5.23987
RightUpLeg  -71.1833 -22.2406 -15.9661
RightLeg  138.903 -14.343 11.8972
RightFoot  -42.4656 1.20157 5.36218
RightToes  -1.11029e-010 1.2921e-014 -6.02303e-014
Spine  51.8413 3.04432 -2.5538
Spine1  -20.7682 2.28114 -2.42581
HEad  -26.9651 3.01114 -1.0956
LeftShoulder1  1.36451 -5.08224 -8.41791
LeftArm  -38.4578 -58.3776 -18.7656
LeftForeArm  73.4509 -76.6408 -39.3724
LeftHand  0.218831 6.97449 17.0358
RightShoulder  5.69108 30.9998 8.84277
RightArm  -53.7491 30.4483 -3.81317
RightForeArm  66.0426 75.667 37.248
RightHand  -0.829297 -0.0405864 -17.9808
LeftUpLeg  -62.3679 27.5315 22.5311
LeftLeg  136.798 27.9836 -22.6489
LeftFoot  -35.91 -0.383334 -2.75823
LeftToes  -1.9349e-011 -1.19469e-011 -2.02219e-012
